<svg width="24" height="24" viewBox="0 0 24 24" fill="none" xmlns="http://www.w3.org/2000/svg">
<path d="M14.4667 8.4617L14.7099 9.00008L15.2988 9.04687L20.9992 9.49983L20.9998 9.50003L20.9999 9.50014C20.9999 9.5008 20.9996 9.50113 20.9991 9.50155C20.9991 9.50156 20.9991 9.50158 20.9991 9.50159L16.4641 13.5827L15.9999 14.0004L16.1715 14.6008L17.9997 20.9978L17.9997 20.9978L17.9997 20.9984L17.9993 20.9989L17.9987 20.9991L17.9982 20.9989L12.5547 17.37L12 17.0002L11.4453 17.37L6.00033 21L5.99923 21.0007L5.99938 21L7.48938 14.548L7.616 13.9998L7.21307 13.607L3.00007 9.49996L3 9.49989L3.00024 9.49987L8.70124 9.04687L9.29019 9.00007L9.53338 8.46164L11.9998 3.00092L14.4667 8.4617Z" stroke="#102133" stroke-width="2"/>
</svg>
